<svg xmlns="http://www.w3.org/2000/svg" xmlns:xlink="http://www.w3.org/1999/xlink" preserveAspectRatio="xMidYMid" viewBox="0 0 15 9">
  <path d="M1.884,8.605 L7.498,2.713 L13.185,8.682 L13.185,8.682 C13.378,8.877 13.640,8.997 13.929,8.997 C14.520,8.997 15.000,8.494 15.000,7.873 C15.000,7.570 14.885,7.295 14.700,7.092 L14.700,7.092 L8.271,0.344 L8.271,0.344 C8.076,0.132 7.803,-0.000 7.500,-0.000 C7.499,-0.000 7.498,0.000 7.498,0.000 C7.497,0.000 7.496,-0.000 7.495,-0.000 C7.192,-0.000 6.919,0.132 6.724,0.344 L6.724,0.344 L0.295,7.092 L0.298,7.095 C0.114,7.297 0.000,7.571 0.000,7.873 C0.000,8.494 0.480,8.997 1.071,8.997 C1.397,8.997 1.688,8.845 1.884,8.605 Z" />
</svg>
